<svg width="100" height="100" viewBox="0 0 100 100" fill="none" xmlns="http://www.w3.org/2000/svg">
<circle cx="50" cy="50" r="45" fill="white"/>
<path fill-rule="evenodd" clip-rule="evenodd" d="M25.0155 71.6028H28.3345C28.4309 71.6072 28.6386 71.6265 28.9574 71.6621C29.2763 71.6962 29.4839 71.7155 29.5803 71.72H31.0619C31.1583 71.7303 31.3659 71.7704 31.6847 71.8386C32.0021 71.9083 32.2097 71.9483 32.3061 71.9572H32.7807C33.2449 71.9572 33.6972 71.9424 34.1377 71.9142C34.5797 71.8831 35.0765 71.8386 35.6282 71.7793C35.8091 71.7778 35.9975 71.7526 36.1917 71.7051C36.3875 71.6591 36.5758 71.6043 36.7553 71.542L39.4841 71.1282L42.511 69.9418L43.1621 69.5265L45.7144 67.213L47.2553 65.2568L47.8485 63.9517C47.9197 63.7975 48.0161 63.5409 48.1392 63.1805C48.2608 62.8202 48.3424 62.5621 48.3824 62.4094C48.3528 61.8414 48.3528 61.2585 48.3824 60.6594C48.4121 60.0617 48.4729 59.4789 48.5604 58.9094V55.5295C48.5589 55.3248 48.5485 55.0683 48.5307 54.7583C48.5144 54.4498 48.504 54.2511 48.5025 54.1651L47.8485 49.6581C47.8396 49.5721 47.7847 49.3882 47.6854 49.1094C47.5875 48.8305 47.503 48.617 47.4333 48.4716L47.018 47.4632L45.4163 45.2089C45.3051 45.0695 45.1286 44.8767 44.8898 44.632C44.6525 44.3873 44.4909 44.2242 44.4078 44.1426L41.5604 41.8884L40.7892 41.1765C40.7328 41.1439 40.6987 41.092 40.6869 41.0208C40.6735 40.9511 40.6691 40.8844 40.6705 40.8206C40.7225 40.3534 40.9909 39.953 41.4788 39.6193C41.9682 39.2856 42.3701 38.9742 42.689 38.685C43.2199 38.028 43.61 37.3117 43.8591 36.5346C44.1097 35.7589 44.2328 34.9536 44.2314 34.1172C44.2047 33.0316 43.96 32.0305 43.4972 31.1155C43.033 30.199 42.5066 29.3017 41.9163 28.4238C41.8496 28.3214 41.7458 28.1983 41.6049 28.0515C41.4655 27.9062 41.3305 27.8127 41.2044 27.7697L36.518 27.356H36.0434C35.6593 27.3604 35.2871 27.3797 34.9252 27.4138C34.5619 27.4494 34.2044 27.4687 33.8485 27.4731C32.2498 27.4642 30.6614 27.4242 29.0835 27.356C27.507 27.2863 25.9335 27.2462 24.3644 27.2358H23.7712C23.5828 27.3055 23.4108 27.4346 23.2521 27.6214C23.0949 27.8098 23.0104 27.9981 23 28.185C23.0326 28.6329 23.2358 28.9102 23.6081 29.0155C23.9818 29.1223 24.3318 29.2216 24.661 29.3121C25.0347 29.4752 25.3833 29.7422 25.7051 30.1144C26.0269 30.4837 26.2123 30.8708 26.2612 31.2712L26.5 33.1087V37.9138C26.5044 38.0651 26.5237 38.4091 26.5623 38.949C26.6008 39.4873 26.6379 40.0301 26.6765 40.5759C26.7136 41.1202 26.7343 41.4791 26.7373 41.6496V42.2414C26.7254 42.8272 26.6765 43.3996 26.589 43.9572C26.503 44.5149 26.454 45.0873 26.4407 45.6746V54.8502C26.6097 55.5651 26.7032 56.2947 26.7225 57.0392C26.7432 57.7852 26.7477 58.5149 26.7373 59.2297C26.7358 60.1492 26.7254 61.0642 26.7076 61.9763C26.6913 62.8869 26.6809 63.7871 26.678 64.6755C26.6809 65.1219 26.6913 65.5772 26.7076 66.0458C26.7254 66.513 26.7358 66.9831 26.7373 67.4592C26.7091 68.2363 26.4392 68.7983 25.929 69.1454C25.4189 69.4939 24.839 69.7594 24.1864 69.9447C23.9729 70.0678 23.7934 70.2354 23.6466 70.4475C23.4983 70.6596 23.4227 70.8865 23.4153 71.1297C23.4256 71.3121 23.5102 71.4649 23.6689 71.588C23.8261 71.7111 23.9996 71.7748 24.1864 71.7793C24.3288 71.7808 24.4608 71.7644 24.5809 71.7274C24.6996 71.6918 24.8464 71.631 25.0169 71.5435L25.0155 71.6028ZM32.189 51.7121C32.1905 51.3873 32.2008 51.0611 32.2172 50.7363C32.235 50.41 32.2453 50.0837 32.2468 49.7589C32.2409 49.0204 32.2246 48.2922 32.1964 47.5759C32.1667 46.8596 32.1653 46.1462 32.189 45.4373L31.833 43.7793V43.72C31.8405 43.3937 31.9443 43.1149 32.1445 42.885C32.3447 42.6536 32.5953 42.4786 32.9008 42.3585C33.0477 42.3274 33.285 42.3007 33.6127 42.2769C33.9375 42.2547 34.1748 42.2414 34.3231 42.2414H34.5011L36.0434 42.5365C36.3475 42.5558 36.6604 42.578 36.9852 42.6032C37.3114 42.6284 37.6095 42.7248 37.8839 42.8924C38.1034 43.0422 38.36 43.2142 38.6536 43.41C38.9487 43.6043 39.2053 43.806 39.4263 44.0166C39.5375 44.1664 39.714 44.414 39.9528 44.7566C40.19 45.0992 40.3517 45.3454 40.4333 45.4966C40.5475 45.7132 40.721 46.0335 40.9523 46.4591C41.1852 46.8833 41.329 47.174 41.3824 47.3312L42.333 50.1134L43.1028 56.1524V57.6918L42.4502 62.2492L41.7383 64.9721L41.0265 66.3335L39.6621 68.1695C39.3358 68.5878 38.965 68.9333 38.5498 69.2047C38.136 69.4761 37.6748 69.6437 37.172 69.7075C36.9214 69.7134 36.561 69.7327 36.0894 69.7668C35.6163 69.8024 35.2856 69.8217 35.0943 69.8261H33.7892C33.4273 69.7608 33.1292 69.5962 32.8919 69.3308C32.6561 69.0653 32.5212 68.7375 32.4841 68.346C32.4544 68.0598 32.4263 67.6579 32.4025 67.1403C32.3803 66.6242 32.3669 66.295 32.3669 66.1555V60.4132C32.364 60.0676 32.3492 59.3068 32.3195 58.1278C32.2913 56.9488 32.2631 55.7697 32.235 54.5907C32.2053 53.4117 32.1905 52.6494 32.189 52.3039V51.7121ZM31.9517 39.1596C31.9176 38.9594 31.8805 38.6034 31.8405 38.0918C31.7989 37.5801 31.7767 37.2242 31.7737 37.024V36.7274C31.7767 36.3418 31.7856 35.9577 31.8034 35.5706C31.8212 35.1865 31.8301 34.7994 31.833 34.4138C31.8271 33.7924 31.8078 33.168 31.7737 32.5392C31.7381 31.9089 31.7189 31.2697 31.7144 30.6172C31.71 30.4155 31.7619 30.1827 31.8701 29.9202C31.9769 29.6591 32.1623 29.5153 32.4248 29.4901L34.4417 29.3714C34.5011 29.3774 34.679 29.4115 34.9771 29.4752C35.2722 29.5405 35.5095 29.6043 35.6875 29.668C36.2896 29.8238 36.8072 30.107 37.2373 30.5208C37.6689 30.9361 37.964 31.4418 38.1197 32.0409C38.1227 32.0839 38.133 32.1625 38.1494 32.2782C38.1672 32.3954 38.1775 32.474 38.179 32.517V34.4746L37.528 37.4392C37.3633 38.0354 37.0667 38.5649 36.6381 39.0261C36.2066 39.4888 35.732 39.87 35.2129 40.1695C35.21 40.171 35.1877 40.1814 35.1477 40.1977C35.1061 40.2155 35.0691 40.2259 35.035 40.2274H34.3824C33.8411 40.2481 33.411 40.2229 33.0922 40.1532C32.7733 40.085 32.4337 39.8522 32.0703 39.4577C32.0392 39.4221 32.0125 39.3731 31.9888 39.3079C31.965 39.2441 31.9532 39.1952 31.9517 39.1596Z" fill="#00556F"/>
<path fill-rule="evenodd" clip-rule="evenodd" d="M49.8713 68.8799C49.8788 70.0485 50.2184 70.9695 50.8858 71.6413C51.5546 72.3131 52.5023 72.6557 53.7273 72.6694C55.6553 72.6824 57.0567 72.2434 57.9332 71.3521C58.8097 70.4623 59.3228 69.0445 59.4741 67.1002C59.437 65.8515 59.4059 64.5064 59.3777 63.0648C59.3481 61.6233 59.3614 60.2782 59.4148 59.0295V45.5011C59.4044 45.0977 59.4237 44.7625 59.4741 44.4926C59.5231 44.2227 59.661 43.9453 59.8894 43.6621C59.9798 43.5657 60.094 43.4619 60.2305 43.3506C60.3669 43.2394 60.5108 43.1653 60.6606 43.1282H61.1351C61.4347 43.1326 61.7417 43.1519 62.0561 43.1875C62.3705 43.2216 62.6775 43.2409 62.9771 43.2453C63.511 43.2335 64.0449 43.1845 64.5803 43.0985C65.1142 43.011 65.6481 42.9621 66.1834 42.9502C66.9116 42.9992 67.3387 43.3328 67.4663 43.9513C67.5938 44.5697 67.6813 45.1867 67.7258 45.7977C67.7036 47.1903 67.705 48.5739 67.7347 49.9517C67.7629 51.328 67.7792 52.7131 67.7866 54.1057C67.7836 56.5112 67.7584 58.9242 67.7125 61.3445C67.665 63.7648 67.6101 66.1778 67.5478 68.5833C67.3803 68.9644 67.057 69.1854 66.5794 69.2462C66.1004 69.307 65.6466 69.4019 65.215 69.5309C64.7834 69.6585 64.5536 70.0129 64.5239 70.5928C64.5328 70.8687 64.6322 71.1193 64.819 71.3417C65.0074 71.5657 65.2239 71.7125 65.4716 71.7792H66.3021C66.6373 71.7792 67.2171 71.7748 68.0373 71.7644C68.8589 71.7555 69.6834 71.7451 70.5125 71.7362C71.34 71.7259 71.9317 71.7214 72.2877 71.7199C72.5131 71.6636 72.7133 71.6295 72.8883 71.6161C73.0618 71.6042 73.2769 71.5998 73.5334 71.6013C73.7678 71.6042 73.9947 71.6146 74.2156 71.6309C74.4351 71.6487 74.662 71.6591 74.8978 71.6606C75.2256 71.6814 75.5771 71.6443 75.9508 71.5523C76.323 71.4604 76.5262 71.2009 76.5589 70.7767C76.5247 70.1835 76.2697 69.8023 75.7921 69.6333C75.3146 69.4642 74.8178 69.2714 74.3017 69.0549C73.7856 68.8398 73.4504 68.3667 73.2991 67.6341L73.0025 63.4801V62.6496C73.0099 60.8432 73.0396 59.0562 73.0915 57.2869C73.1434 55.5176 73.1731 53.7453 73.179 51.9687C73.1834 51.6987 73.1879 51.4095 73.1923 51.1011C73.1968 50.7926 73.1716 50.4886 73.1182 50.189V48.2907C73.1241 46.3597 73.1404 44.4229 73.1701 42.4786C73.1983 40.5358 73.1997 38.5989 73.1775 36.668C73.2101 36.5464 73.2472 36.3165 73.2872 35.9784C73.3288 35.6417 73.351 35.397 73.3555 35.2443V35.0663C73.3495 35.0174 73.3303 34.9091 73.2961 34.7415C73.2606 34.5725 73.2413 34.4642 73.2368 34.4138V33.4646C73.2368 32.4458 73.3688 31.5782 73.6298 30.8619C73.8894 30.147 74.2735 29.6502 74.7777 29.3714C75.2493 29.2038 75.6868 29.1104 76.0902 29.0911C76.4951 29.0703 76.7101 28.71 76.7368 28.007C76.7294 27.7667 76.6404 27.5665 76.4684 27.4064C76.2993 27.2477 76.0902 27.1513 75.847 27.1172C75.6957 27.1127 75.3591 27.0934 74.8385 27.0593C74.3165 27.0237 73.9798 27.0044 73.83 27H73.4148C72.8305 27.0193 72.4419 27.0979 72.2506 27.2358C72.0593 27.3752 71.6574 27.4538 71.0434 27.4731H70.3315L66.5972 27.0593H66.4786C66.397 27.0653 66.222 27.1097 65.9536 27.1913C65.6851 27.2729 65.4656 27.347 65.2936 27.4138C65.1809 27.485 64.9926 27.5814 64.7301 27.703C64.469 27.8261 64.2807 27.9076 64.1665 27.9477C63.9381 28.0975 63.5792 28.3333 63.0898 28.6521C62.6019 28.9725 62.2875 29.1934 62.1466 29.3121C61.9775 29.4263 61.6631 29.7036 61.2034 30.1426C60.7451 30.5831 60.4455 30.8604 60.3046 30.9731C59.9339 31.289 59.5483 31.593 59.1479 31.8852C58.7474 32.1788 58.4226 32.5273 58.1705 32.9307L55.682 37.1441L54.8529 39.5748C54.7714 39.8328 54.7269 40.0597 54.7195 40.257C54.712 40.4557 54.6972 40.6826 54.675 40.9392C54.6676 41.0208 54.6379 41.1691 54.586 41.3826C54.5341 41.5977 54.5044 41.746 54.497 41.8261C54.4659 41.964 54.4392 42.2502 54.4154 42.6847C54.3917 43.1178 54.3798 43.404 54.3784 43.5434L54.1426 44.8485L53.8445 53.9278V54.8176C53.8504 55.4998 53.8697 56.182 53.9053 56.8642C53.9394 57.5464 53.9587 58.2286 53.9646 58.9108V59.1481C53.9349 59.332 53.9186 59.7072 53.9127 60.2767C53.9053 60.8447 53.9038 61.2199 53.9053 61.4038V65.3206C53.8993 65.5504 53.8801 65.936 53.8445 66.4773C53.8104 67.0187 53.7911 67.4042 53.7866 67.6341C53.7555 68.082 53.6976 68.5225 53.6146 68.954C53.533 69.3871 53.2527 69.6199 52.7782 69.6511C52.1582 69.6229 51.7875 69.4271 51.6659 69.0667C51.5428 68.7049 51.4671 68.343 51.4375 67.9812C51.4078 67.6208 51.2209 67.425 50.8798 67.3983C50.5254 67.422 50.2688 67.5956 50.1087 67.9159C49.947 68.2362 49.8684 68.5581 49.8713 68.8784V68.8799ZM63.9292 40.8206H61.018C60.6398 40.8146 60.2824 40.6945 59.9487 40.4572C59.615 40.2214 59.437 39.9085 59.4148 39.5155C59.4237 39.0439 59.4637 38.5797 59.5334 38.1229C59.6017 37.6646 59.6417 37.2004 59.6521 36.7273C59.8938 35.7856 60.226 34.8958 60.6472 34.0578C61.0684 33.2199 61.5474 32.3894 62.0873 31.5663C62.1807 31.4343 62.3067 31.2697 62.4669 31.071C62.6256 30.8708 62.7962 30.721 62.9786 30.6172L65.2343 29.5494C65.3485 29.493 65.4464 29.4589 65.5309 29.447C65.6154 29.4337 65.7133 29.4292 65.8275 29.4307C66.007 29.4307 66.1953 29.4604 66.3911 29.5197C66.5853 29.5805 66.7737 29.668 66.9531 29.7867C67.269 29.9691 67.4678 30.2138 67.5538 30.5208C67.6383 30.8292 67.6754 31.1778 67.665 31.5663V32.1002C67.6576 32.21 67.6279 32.3775 67.576 32.6059C67.5241 32.8328 67.4945 33.0004 67.487 33.1087V39.5155C67.4455 40.0939 67.1726 40.4809 66.6639 40.6722C66.1567 40.865 65.6599 40.954 65.175 40.9392C64.9495 40.9422 64.7493 40.9377 64.5743 40.9244C64.4008 40.9125 64.1858 40.8784 63.9292 40.8206Z" fill="#00556F"/>
</svg>
